<svg viewBox="0 0 330 200" xmlns="http://www.w3.org/2000/svg"><g><g><g><g><g><line x1="50" y1="177" x2="45" y2="177" style="visibility: inherit;" fill="rgb(0, 0, 0)" stroke="rgb(204, 204, 204)" stroke-width="1px"></line><line x1="50" y1="160.9090909090909" x2="45" y2="160.9090909090909" style="visibility: inherit;" fill="rgb(0, 0, 0)" stroke="rgb(204, 204, 204)" stroke-width="1px"></line><line x1="50" y1="144.8181818181818" x2="45" y2="144.8181818181818" style="visibility: inherit;" fill="rgb(0, 0, 0)" stroke="rgb(204, 204, 204)" stroke-width="1px"></line><line x1="50" y1="128.72727272727272" x2="45" y2="128.72727272727272" style="visibility: inherit;" fill="rgb(0, 0, 0)" stroke="rgb(204, 204, 204)" stroke-width="1px"></line><line x1="50" y1="112.63636363636364" x2="45" y2="112.63636363636364" style="visibility: inherit;" fill="rgb(0, 0, 0)" stroke="rgb(204, 204, 204)" stroke-width="1px"></line><line x1="50" y1="96.54545454545453" x2="45" y2="96.54545454545453" style="visibility: inherit;" fill="rgb(0, 0, 0)" stroke="rgb(204, 204, 204)" stroke-width="1px"></line><line x1="50" y1="80.45454545454544" x2="45" y2="80.45454545454544" style="visibility: inherit;" fill="rgb(0, 0, 0)" stroke="rgb(204, 204, 204)" stroke-width="1px"></line><line x1="50" y1="64.36363636363635" x2="45" y2="64.36363636363635" style="visibility: inherit;" fill="rgb(0, 0, 0)" stroke="rgb(204, 204, 204)" stroke-width="1px"></line><line x1="50" y1="48.272727272727266" x2="45" y2="48.272727272727266" style="visibility: inherit;" fill="rgb(0, 0, 0)" stroke="rgb(204, 204, 204)" stroke-width="1px"></line><line x1="50" y1="32.18181818181817" x2="45" y2="32.18181818181817" style="visibility: inherit;" fill="rgb(0, 0, 0)" stroke="rgb(204, 204, 204)" stroke-width="1px"></line><line x1="50" y1="16.090909090909076" x2="45" y2="16.090909090909076" style="visibility: inherit;" fill="rgb(0, 0, 0)" stroke="rgb(204, 204, 204)" stroke-width="1px"></line><line x1="50" y1="0" x2="45" y2="0" style="visibility: inherit;" fill="rgb(0, 0, 0)" stroke="rgb(204, 204, 204)" stroke-width="1px"></line></g><g transform="translate(40, 0)"><text x="0" y="177" dx="0em" dy="0.3em" style="text-anchor: end; visibility: hidden; font-family: Roboto, sans-serif; font-size: 12px; font-weight: 200;" fill="rgb(255, 255, 255)" stroke="none" stroke-width="1px">0.02</text><text x="0" y="160.9090909090909" dx="0em" dy="0.3em" style="text-anchor: end; visibility: inherit; font-family: Roboto, sans-serif; font-size: 12px; font-weight: 200;" fill="rgb(255, 255, 255)" stroke="none" stroke-width="1px">0.04</text><text x="0" y="144.8181818181818" dx="0em" dy="0.3em" style="text-anchor: end; visibility: hidden; font-family: Roboto, sans-serif; font-size: 12px; font-weight: 200;" fill="rgb(255, 255, 255)" stroke="none" stroke-width="1px">0.06</text><text x="0" y="128.72727272727272" dx="0em" dy="0.3em" style="text-anchor: end; visibility: inherit; font-family: Roboto, sans-serif; font-size: 12px; font-weight: 200;" fill="rgb(255, 255, 255)" stroke="none" stroke-width="1px">0.08</text><text x="0" y="112.63636363636364" dx="0em" dy="0.3em" style="text-anchor: end; visibility: hidden; font-family: Roboto, sans-serif; font-size: 12px; font-weight: 200;" fill="rgb(255, 255, 255)" stroke="none" stroke-width="1px">0.1</text><text x="0" y="96.54545454545453" dx="0em" dy="0.3em" style="text-anchor: end; visibility: inherit; font-family: Roboto, sans-serif; font-size: 12px; font-weight: 200;" fill="rgb(255, 255, 255)" stroke="none" stroke-width="1px">0.12</text><text x="0" y="80.45454545454544" dx="0em" dy="0.3em" style="text-anchor: end; visibility: hidden; font-family: Roboto, sans-serif; font-size: 12px; font-weight: 200;" fill="rgb(255, 255, 255)" stroke="none" stroke-width="1px">0.14</text><text x="0" y="64.36363636363635" dx="0em" dy="0.3em" style="text-anchor: end; visibility: inherit; font-family: Roboto, sans-serif; font-size: 12px; font-weight: 200;" fill="rgb(255, 255, 255)" stroke="none" stroke-width="1px">0.16</text><text x="0" y="48.272727272727266" dx="0em" dy="0.3em" style="text-anchor: end; visibility: hidden; font-family: Roboto, sans-serif; font-size: 12px; font-weight: 200;" fill="rgb(255, 255, 255)" stroke="none" stroke-width="1px">0.18</text><text x="0" y="32.18181818181817" dx="0em" dy="0.3em" style="text-anchor: end; visibility: inherit; font-family: Roboto, sans-serif; font-size: 12px; font-weight: 200;" fill="rgb(255, 255, 255)" stroke="none" stroke-width="1px">0.2</text><text x="0" y="16.090909090909076" dx="0em" dy="0.3em" style="text-anchor: end; visibility: hidden; font-family: Roboto, sans-serif; font-size: 12px; font-weight: 200;" fill="rgb(255, 255, 255)" stroke="none" stroke-width="1px">0.22</text><text x="0" y="0" dx="0em" dy="0.3em" style="text-anchor: end; visibility: hidden; font-family: Roboto, sans-serif; font-size: 12px; font-weight: 200;" fill="rgb(255, 255, 255)" stroke="none" stroke-width="1px">0.24</text></g><line x1="50" y1="0" x2="50" y2="177" fill="rgb(0, 0, 0)" stroke="rgb(204, 204, 204)" stroke-width="1px"></line></g></g><g transform="translate(50, 0)" clip-path="url(#clip_0)"><clipPath id="clip_0"><rect width="280" height="177"></rect></clipPath><g><g><g><line x1="0" y1="0" x2="0" y2="177" fill="rgb(0, 0, 0)" stroke="rgb(189, 189, 189)" stroke-width="1px" opacity="0.25"></line><line x1="23.333333333333332" y1="0" x2="23.333333333333332" y2="177" fill="rgb(0, 0, 0)" stroke="rgb(189, 189, 189)" stroke-width="1px" opacity="0.25"></line><line x1="46.666666666666664" y1="0" x2="46.666666666666664" y2="177" fill="rgb(0, 0, 0)" stroke="rgb(189, 189, 189)" stroke-width="1px" opacity="0.25"></line><line x1="70" y1="0" x2="70" y2="177" fill="rgb(0, 0, 0)" stroke="rgb(189, 189, 189)" stroke-width="1px" opacity="0.25"></line><line x1="93.33333333333333" y1="0" x2="93.33333333333333" y2="177" fill="rgb(0, 0, 0)" stroke="rgb(189, 189, 189)" stroke-width="1px" opacity="0.25"></line><line x1="116.66666666666667" y1="0" x2="116.66666666666667" y2="177" fill="rgb(0, 0, 0)" stroke="rgb(189, 189, 189)" stroke-width="1px" opacity="0.25"></line><line x1="140" y1="0" x2="140" y2="177" fill="rgb(0, 0, 0)" stroke="rgb(189, 189, 189)" stroke-width="1px" opacity="0.25"></line><line x1="163.33333333333334" y1="0" x2="163.33333333333334" y2="177" fill="rgb(0, 0, 0)" stroke="rgb(189, 189, 189)" stroke-width="1px" opacity="0.25"></line><line x1="186.66666666666666" y1="0" x2="186.66666666666666" y2="177" fill="rgb(0, 0, 0)" stroke="rgb(189, 189, 189)" stroke-width="1px" opacity="0.25"></line><line x1="210" y1="0" x2="210" y2="177" fill="rgb(0, 0, 0)" stroke="rgb(189, 189, 189)" stroke-width="1px" opacity="0.25"></line><line x1="233.33333333333334" y1="0" x2="233.33333333333334" y2="177" fill="rgb(0, 0, 0)" stroke="rgb(189, 189, 189)" stroke-width="1px" opacity="0.25"></line><line x1="256.66666666666663" y1="0" x2="256.66666666666663" y2="177" fill="rgb(0, 0, 0)" stroke="rgb(189, 189, 189)" stroke-width="1px" opacity="0.25"></line><line x1="280" y1="0" x2="280" y2="177" fill="rgb(0, 0, 0)" stroke="rgb(189, 189, 189)" stroke-width="1px" opacity="0.25"></line></g><g><line x1="0" y1="177" x2="280" y2="177" fill="rgb(0, 0, 0)" stroke="rgb(189, 189, 189)" stroke-width="1px" opacity="0.25"></line><line x1="0" y1="160.9090909090909" x2="280" y2="160.9090909090909" fill="rgb(0, 0, 0)" stroke="rgb(189, 189, 189)" stroke-width="1px" opacity="0.25"></line><line x1="0" y1="144.8181818181818" x2="280" y2="144.8181818181818" fill="rgb(0, 0, 0)" stroke="rgb(189, 189, 189)" stroke-width="1px" opacity="0.25"></line><line x1="0" y1="128.72727272727272" x2="280" y2="128.72727272727272" fill="rgb(0, 0, 0)" stroke="rgb(189, 189, 189)" stroke-width="1px" opacity="0.25"></line><line x1="0" y1="112.63636363636364" x2="280" y2="112.63636363636364" fill="rgb(0, 0, 0)" stroke="rgb(189, 189, 189)" stroke-width="1px" opacity="0.25"></line><line x1="0" y1="96.54545454545453" x2="280" y2="96.54545454545453" fill="rgb(0, 0, 0)" stroke="rgb(189, 189, 189)" stroke-width="1px" opacity="0.25"></line><line x1="0" y1="80.45454545454544" x2="280" y2="80.45454545454544" fill="rgb(0, 0, 0)" stroke="rgb(189, 189, 189)" stroke-width="1px" opacity="0.25"></line><line x1="0" y1="64.36363636363635" x2="280" y2="64.36363636363635" fill="rgb(0, 0, 0)" stroke="rgb(189, 189, 189)" stroke-width="1px" opacity="0.25"></line><line x1="0" y1="48.272727272727266" x2="280" y2="48.272727272727266" fill="rgb(0, 0, 0)" stroke="rgb(189, 189, 189)" stroke-width="1px" opacity="0.25"></line><line x1="0" y1="32.18181818181817" x2="280" y2="32.18181818181817" fill="rgb(0, 0, 0)" stroke="rgb(189, 189, 189)" stroke-width="1px" opacity="0.25"></line><line x1="0" y1="16.090909090909076" x2="280" y2="16.090909090909076" fill="rgb(0, 0, 0)" stroke="rgb(189, 189, 189)" stroke-width="1px" opacity="0.25"></line><line x1="0" y1="0" x2="280" y2="0" fill="rgb(0, 0, 0)" stroke="rgb(189, 189, 189)" stroke-width="1px" opacity="0.25"></line></g></g></g><g><g><line x1="0" y1="193.09090909090907" x2="280" y2="193.09090909090907" fill="rgb(0, 0, 0)" stroke="rgb(153, 153, 153)" stroke-width="1.5px"></line></g></g><g><g><line x1="23.333333333333332" y1="0" x2="23.333333333333332" y2="177" fill="rgb(0, 0, 0)" stroke="rgb(153, 153, 153)" stroke-width="1.5px"></line></g></g><g><g><g><g><g><path stroke="rgb(255, 112, 67)" stroke-width="2px" d="M23.534,9.233407657254824L23.548,31.516260744834476L23.669333333333334,35.33637051082494L23.776666666666667,44.122108021452185L24.117333333333335,60.75911399595939L24.406666666666666,87.5927440162492L24.43,56.300991852632905L24.528,84.3273793978926L24.612000000000002,89.9953734427111L24.775333333333332,56.37437677984998L24.784666666666666,70.23357448785566L24.822000000000003,90.43014279168389L25.55,96.07455208399789L25.839333333333332,106.03799692435166L26.04,103.14211848238759L26.072666666666667,105.81837000640286L26.296666666666667,106.76171791474974L26.357333333333333,98.52612031229515L26.46933333333333,106.04866821054785L26.67,83.43806619947027L26.707333333333334,95.17212097967706L27.00133333333333,86.68123815431372L27.08066666666667,109.14240976941011L27.108666666666664,111.34364680460372L27.239333333333335,109.90323469832892L27.869333333333334,103.53952748196795L28.07,105.23354405139094L28.312666666666665,109.42041391119383L28.49,88.65245595192435L28.84466666666667,78.02298809184184L29.222666666666665,94.00856779120632L29.479333333333336,108.75947971218751L29.493333333333332,125.02563582051003L29.558666666666667,123.06690716228776L29.577333333333332,133.18881611684336L29.801333333333336,107.92224755736846L29.834000000000003,114.8240694128415L30.03933333333333,109.70878405217154L30.179333333333332,114.37109587487939L30.445333333333334,120.11892852840136L30.58066666666667,110.97898204581396L30.655333333333335,109.33066412728326L30.73,104.95092743515994L31.229333333333333,114.02951945043849L31.43,114.58348807803932L31.444,109.2564873173131L31.94333333333333,118.13009961723473L32.046,109.91242883570115L32.09733333333333,108.9076358614257L32.284,103.46711456780372L32.36333333333333,117.03981707918297L32.424,128.67803750567364L32.839333333333336,130.76142679315626L33.11933333333334,127.49141128403151L33.544000000000004,115.29799771468753L33.6,110.81517959441214L33.74933333333333,122.36894651373136L33.77733333333333,113.05616990344994L33.894,119.10666013998927L34.104,115.68212811170613L34.486666666666665,119.07076234449296L34.706,123.56364217894891L34.785333333333334,106.03773265994325L34.794666666666664,109.55285079375405L34.818,113.76647605356872L34.934666666666665,129.59136799841056L34.93933333333333,136.3748815414896L34.995333333333335,132.0864325243424L35.01866666666666,128.6187404196918L35.153999999999996,130.77613378338413L35.224,125.42639125395708L35.867999999999995,123.45005432318439L36.12466666666667,125.43072621446234L37.184,126.8395744592684L37.51533333333334,130.2220318519967L37.529333333333334,130.06764930997582L37.800000000000004,126.15679893637636L38.089333333333336,132.212906583978L38.41133333333333,120.4806174019882L38.47666666666667,116.94944035236942L38.486,126.15015977050716L38.49066666666666,126.6987136649459L38.76133333333333,139.2566955453757L39.578,129.60584150732993L40.222,132.59660163673263L40.23133333333333,118.56120028911802L40.464666666666666,115.96064646027658L40.796,110.90923031883018L41.03866666666667,103.6368809092491L41.13666666666667,113.56371120990916L41.16933333333333,115.62941919738469L41.668666666666674,125.77848153857674L41.79933333333333,120.39951499431304L41.93,123.34020550327881L42.17266666666667,106.34708328900079L42.462,107.68084240145616L42.919333333333334,111.413524473287L43.064,114.64417162431104L43.08733333333333,116.93858240020332L43.483999999999995,106.64421653730903L43.49333333333333,121.06571917198764L43.87133333333333,118.06956445904719L44.30066666666667,95.27251295558627L44.38,104.64564400988934L44.477999999999994,116.4237341852943L45.10333333333333,118.66594328604806L45.122,114.13878355587036L45.159333333333336,120.82488323168843L45.681999999999995,119.38843248653725L45.74733333333333,109.43647595321669L45.92466666666667,118.28092828600562L45.98066666666667,114.87991593550471L46.17666666666666,120.89354548453153L46.535999999999994,129.0457160503146L46.90466666666667,108.754293009017L46.914,122.58934144746797L47.166,125.8745063550293L47.29666666666667,129.54146381062387L47.78666666666666,128.98596051620532L48.28133333333333,129.50373841532684L48.346666666666664,128.2038531635538L48.63133333333333,125.67885244368253L49.233333333333334,133.26769868366614L49.839999999999996,137.24094583048586L50.04533333333333,140.47335447181126L50.442,143.67671988113224L50.535333333333334,137.31810228918818L50.70333333333334,143.0540573837232L50.736,134.51860153274419L50.903999999999996,133.94261563396643L51.002,134.29056576508725L51.291333333333334,125.1592478014138L51.38466666666667,124.85572481983453L51.90266666666667,121.60520183453183L51.94933333333333,126.90278441391285L52.27133333333334,131.14958124729768L52.332,121.24934057056932L52.36,127.50102711930076L52.42066666666667,138.16221482447938L52.68666666666667,124.27566591003468L52.794,121.9813679619747L53.092666666666666,130.92774606945997L53.76466666666667,124.44114847087414L54.016666666666666,122.83289325786669L54.151999999999994,115.30976104686663L54.404,121.9831563523954L54.586000000000006,129.83278689605L54.6,133.1041895920808L54.656000000000006,130.96948413915266L54.80066666666667,137.8168726636795L55.32333333333333,126.19994392455767L55.846,129.75634459802924L55.96733333333333,131.2157340763068L56.49933333333333,137.6656445898718L56.53666666666666,133.76609663811146L56.728,130.30135906453296L57.157333333333334,130.71813864050617L57.455999999999996,127.1180861071681L57.68,130.08103263776565L57.787333333333336,119.46067350962579L58.10466666666667,130.87768235122454L58.15133333333333,113.85199351607032L58.16533333333333,116.21622278987329L58.23533333333333,126.30027998181286L58.38933333333333,115.26456263477864L59.23866666666666,109.34771545419254L59.55133333333333,122.78391004182033L59.682,134.18023942402732L59.72866666666666,130.79221710801616L59.892,135.30704237040902L60.629333333333335,139.83063004948187L60.97933333333333,138.24638714243736L61.51133333333333,140.84195919299526L61.702666666666666,110.0600930171167L62.230000000000004,112.83467529517145L62.36533333333333,120.99097556001438L62.388666666666666,125.30394103494093L62.43066666666667,135.75485921368536L62.85066666666667,137.67103594927403L62.864666666666665,145.03461031197014L62.995333333333335,138.76889738162188L63.041999999999994,127.65990700554747L63.476000000000006,132.07759635261561L63.63466666666667,135.38943259755618L63.91466666666667,122.9591258700535L64.49333333333334,123.774170877144L64.76866666666666,119.10597062260769L64.89,128.82736446432605L64.904,124.2162579177161L65.002,131.49099954833625L65.03466666666667,133.70463746979584L65.30533333333332,142.14719287571162L65.33333333333333,126.48705060275324L65.59466666666667,128.29966840468276L66.55133333333333,131.9874478912065L66.81266666666667,132.9204266721162L66.962,127.35438675282046L67.36800000000001,128.5303760780931L67.522,122.75958922751623L67.89066666666666,128.12010781370873L67.92333333333333,127.74798479212197L67.984,129.1755544640051L68.264,120.43470757154822L68.404,117.73764614215233L68.51133333333334,132.59023210512407L68.59533333333333,117.89938328113061L69.272,119.694079338369L69.57066666666667,126.29832690560978L70.27533333333334,129.79453329749853L70.39666666666668,138.75078695367003L71.29266666666666,132.2349771162881L71.32533333333333,125.79959772343607L71.85266666666666,125.91815972949533L71.86666666666666,131.76705970920224L71.96466666666667,99.99810878045346L72.24000000000001,110.5148354013816L72.44066666666666,123.06881804813369L72.83733333333333,119.19058184246782L72.982,111.36885291371897L73.05666666666667,113.47281597006089L73.136,132.01675825087887L73.32266666666668,118.49943963042998L73.53733333333334,124.86024286360804L73.542,130.8438815756949L73.64466666666667,133.47519487157427L73.808,128.0883643091617L73.92933333333333,129.2437132638686L73.97133333333333,124.46506254760746L74.214,132.6430343553541L74.228,131.7176992715288L74.38666666666667,129.6366868849764L74.40533333333333,136.1408087686943L74.51266666666666,119.10591898960807L74.54066666666667,122.3254567523611L74.55,132.45428644737297L74.76466666666667,131.81020952643462L75.14733333333332,135.45704402554932L75.236,135.33539241515396L75.27799999999999,133.4089160163786L75.59533333333334,132.24202698358323L75.60466666666667,144.80763045266144L75.88466666666667,141.23989087693454L76.62666666666667,139.54859655113555L76.87400000000001,134.11200117096408L76.96733333333333,134.96035174471473L77.112,126.26596396964553L77.15400000000001,135.34698983475263L77.23333333333333,134.75777733916135L77.31266666666667,140.98240323393722L77.69533333333334,120.94027860534247L77.80266666666667,114.72197098368548L77.86800000000001,121.93956199677184L78.21333333333332,124.52819046286311L78.74533333333333,122.75477053197037L79.19333333333333,125.31908937594562L79.21666666666667,134.09940289221782L79.38466666666666,135.8961637672448L79.52933333333334,130.9825989767817L79.982,121.93060333573807L80.10333333333334,132.47140094718276L80.122,139.92007188872336L80.19666666666666,141.45001191449936L80.39266666666667,141.14091124864086L80.69133333333333,131.549878339902L80.70533333333333,137.54106098902713L80.78,139.7778904182897L81.22800000000001,136.137631030381L81.47533333333332,130.46331707816248L82.46933333333332,129.4220511517688L82.6,101.15940103216285L83.09466666666667,115.19705184921159L83.43066666666667,126.57469754239098L83.72,130.76581150511282L84.084,129.11289984714617L84.16333333333333,120.72673585634229L84.28933333333333,105.019872892352L84.38733333333333,109.4180032720876L84.44333333333333,130.86516362600887L84.51333333333334,134.5063649307094L84.77933333333334,132.68928488923433L85.12,126.76732094730386L85.63333333333334,125.12753535622896L85.88066666666667,134.2780967779918L85.89933333333335,126.60226497383331L86.35666666666667,124.53306793768058L86.55266666666667,130.10754496487016L86.79066666666667,135.15950769346L86.89800000000001,134.4597275515965L87.17333333333333,133.51437245534922L87.18733333333334,126.5975110926399L87.626,119.71012869357989L87.78466666666667,127.60892530391389L87.948,129.8271244261522L88.13,122.40103160268855L88.55933333333334,123.32494008822587L88.66199999999999,133.7777091655497L89.04466666666667,129.14098341696376L89.70266666666667,141.6119985186306L90.01066666666667,140.15021130461977L90.04333333333334,139.89526179227738L90.08533333333332,127.01118476051016L90.16466666666666,125.6755289524453L90.24866666666667,122.90263125347131L90.52399999999999,120.60465647443718L90.75733333333334,131.222199862009L90.97666666666667,139.8568469609923L91.27066666666667,132.5474148727936L91.62066666666666,131.97613290338248L91.64866666666666,123.13459198923212L91.78866666666666,118.53050061505725L91.83066666666667,128.28272180874706L91.87733333333334,129.24007429551816L92.30666666666667,121.32335802565332L92.34866666666666,123.20995875009268L92.36733333333332,117.29749917273743L92.44666666666667,123.15928364782727L92.74533333333333,114.96160017408087L92.834,120.67460704528672L93.464,135.46273853237912L93.758,136.85836716966756L93.97266666666667,120.1771808511811L94.178,137.32080564534L94.57933333333332,135.45478767860405L94.85,141.50248548648204L95.54533333333333,122.2458762905142L95.55466666666666,132.23802074867245L95.704,136.87291204217095L95.84866666666666,140.1123004274548L96.124,132.2434178232431L96.79133333333334,139.19686382999242L96.90333333333334,141.37893710726632L96.94533333333334,137.71285537813765L97.202,131.24966666063466L97.90666666666667,137.02960334342652L97.972,113.96070866657455L98.44800000000001,125.75171041142113L98.54599999999999,128.6937263256652L99.16666666666667,124.94219982737722L99.50266666666667,116.43878933855545L99.60533333333333,126.4861887822125L99.68466666666666,120.57119296911256L99.89933333333333,132.82352828418766L100.058,131.69363840807088L100.36133333333333,135.279709322493L100.73466666666667,127.10352280278899L101.08933333333333,126.38525613868177L101.25733333333332,130.16319869429597L101.77533333333334,128.73805591690433L101.78,134.0912362702905L101.93866666666666,129.46347579116392L102.004,136.389937403962L102.2,139.21956989141023L102.97933333333334,143.3529262928469L103.12400000000001,129.05694113900086L103.28266666666667,137.6230736591751L103.78666666666666,143.34080806538017L103.94066666666666,142.2579622208043L104.02466666666666,129.53156765985818L104.03399999999999,129.5922046436893L104.146,119.80527181232138L104.15066666666667,125.39076223310872L104.16466666666666,134.47503561659698L104.25333333333334,129.07606359217627L104.41666666666667,137.02993255627953L104.56133333333334,131.1803142268554L104.74333333333333,135.33192613737177L104.79,141.8553083539986L105.20533333333333,137.16802692961053L105.27066666666667,128.0121911238892L105.406,135.2184082512633L105.44333333333333,129.78113097759996L105.57866666666666,128.46091578870582L106.04066666666667,136.7607693678494L107.11866666666667,133.89889322882303L107.24933333333334,133.63945930698756L107.29133333333333,125.34083630848565L107.422,118.12782480190832L107.58533333333332,101.33434673253893L107.64133333333334,118.71630854343621L107.94,124.30395099915576L108.57,131.4466726825306L108.822,138.24320496403283L109.44266666666665,128.17787376865158L109.44733333333335,117.04589883688823L110.10066666666667,128.15395647056596L110.66533333333334,124.7306452975732L110.698,137.0810881432982L111.28133333333334,130.2093597057083L111.80866666666667,133.60590845849734L111.89733333333334,135.61221881431496L112.028,118.19749861790034L112.13066666666667,127.89391936181144L112.22866666666667,119.83438300029783L112.54599999999999,127.7163675819201L112.79333333333334,127.80334478854044L113.064,111.91911606605916L113.26933333333334,118.21590665024887L114.268,116.0289169682514L114.35199999999999,115.87342039166779L114.45466666666667,123.41608699376354L114.48266666666666,131.07143014364064L114.99133333333333,135.58017351552508L115.05666666666666,141.5714073560841L115.108,128.721999611661L115.36466666666666,131.90720216568258L115.416,129.99393108676531L115.444,125.39263928808799L115.71933333333334,119.20002593217023L115.84533333333333,127.39918055360697L115.95266666666667,126.64193660317606L116.27933333333334,127.65040115296094L116.382,128.286751107504L116.536,140.1690670681233L116.64800000000001,125.66023298694101L116.83466666666666,130.77699607097426L116.91866666666667,134.01379702108366L116.94666666666667,134.53696675180842L116.96066666666667,140.8728943501678L117.31533333333333,144.91550452835148L117.32,128.19226376663264L117.53933333333333,123.02888328539068L117.684,131.12906568580001L117.81,136.89721193376695L117.824,135.33815338779505L117.84733333333334,147.14365149154403L118.17866666666666,148.50964759656273L118.23,134.97738239415847L118.45866666666666,124.98350013696712L118.72466666666666,128.79122242301116L118.93466666666667,114.97655320203494L119.126,126.69881664183904L119.18666666666667,136.45989131826644L119.19133333333335,129.18002022227554L119.294,139.58607760512285L119.36866666666667,125.1575982613336L119.88666666666666,135.50291318824443L119.98466666666667,138.51448365852838L120.30666666666666,121.84710236726113L120.32066666666667,124.19816954120559L120.32533333333333,125.22611019071135L120.54933333333334,111.78958093774217L120.66133333333333,122.35571756588918L121.27733333333333,126.14463197746197L121.65066666666667,131.59958916043232L121.71133333333333,134.7899376151155L122.01,139.01234406839225L122.31333333333333,134.07032639368802L122.42066666666666,132.65835478491607L122.81266666666666,128.3955997588728L122.82666666666667,131.2917758854272L122.85,124.7598299343611L123.16266666666667,132.24221034294627L123.24666666666666,140.07342523277288L123.59666666666666,134.61852994092234L123.77866666666667,122.7406230719562L124.51599999999999,125.52660540975457L124.712,127.89037457087397L124.71666666666667,128.67554122847122L125.02,131.02367718223L125.048,138.93623498474244L125.16933333333334,128.84011632060003L125.26733333333334,128.31189154787762L125.29533333333333,130.01494064777708L126.03266666666667,118.22368671370948L127.148,117.59241791183703L127.20866666666666,129.00473420525924L127.36733333333332,126.32438821020921L127.47933333333333,136.40881928809947L127.54466666666667,139.1300575945015L127.67533333333334,136.05944246457702L128.20733333333334,137.62952120221394L128.37066666666666,131.01636911158351L128.54333333333332,133.28318606884397L128.968,136.03611174376567L129.57466666666667,127.46258189768648L129.92466666666667,141.81251433838585L130.34466666666668,132.11035681954348L130.35866666666666,134.04231912499372L131.04466666666667,126.44476234840413L131.06333333333333,126.0677775064369L131.264,132.0551875754479L131.3153333333333,132.81031066649132L131.362,137.68645012660608L131.52066666666667,137.1504437588137L131.56733333333332,139.69991816383762L131.68866666666668,132.9204365515296L131.89866666666668,135.3564429962604L132.006,138.72276584058272L132.244,139.4402588217052L132.356,142.8433923842935L132.44466666666665,125.85962757060045L132.664,133.1622069133847L133.19133333333335,133.17031238127197L133.42,140.32498799732215L133.798,142.78422230004165L133.84933333333333,133.04579789243388L133.94266666666667,135.2114400776L134.28333333333333,140.60668445570624L134.54933333333332,133.3571570447233L135.04866666666666,133.34289786080132L135.70666666666668,135.26531529776383L135.88866666666667,132.9563444077283L136.024,137.77364357499863L136.43,138.6926195659824L136.654,131.77486523511448L136.66333333333333,129.4224950783615L136.84066666666666,123.14161196537891L136.948,124.8985123217479L137.27933333333334,127.68492061162067L137.93733333333333,131.642487822286L138.23600000000002,137.51227205836926L138.69333333333333,141.87805085847904L138.73066666666668,145.51258012526222L139.44,138.4296841158666L139.54266666666666,128.8810084769735L139.69666666666666,136.3308044141298L140.042,134.1362641704268L140.22400000000002,127.65995339682999L140.62533333333332,130.94889170659906L140.96599999999998,138.41085814620504L141.08266666666668,121.9278870528611L141.14333333333335,128.39137719253193L141.18533333333332,132.35107569747316L141.554,138.78653731990113L141.82933333333332,128.99380182327508L142.36133333333333,136.154634643478L142.43133333333336,145.56892729009883L142.8,127.73340538916948L143.206,131.65952768626948L143.62133333333333,136.03570054050715L143.79399999999998,137.05289992518897L143.95733333333334,136.2407265045992L144.30266666666665,136.19686385949237L144.88133333333332,136.49052125029L144.97933333333336,127.25927773981451L145.02133333333333,120.77735246233547L145.096,131.70062257600722L145.39,123.58485800422423L145.39466666666667,121.59104996235214L145.45999999999998,113.30492008676391L146.034,132.43262892931858L146.08533333333335,133.04046079336067L146.552,124.14535753781311L146.86466666666666,134.66116284776916L147.798,120.72072136724053L148.39066666666668,121.32780686159819L148.39533333333335,126.41456935760041L148.53066666666666,119.50856647140508L148.54,131.7127886887106L149.002,137.9008217932573L149.702,139.6854356917452L150.00066666666666,142.0394991312234L150.02866666666668,141.25122176144282L150.05666666666667,138.7623499186859L150.07533333333333,126.84118113719487L150.08,126.41190346849704L150.61666666666667,129.31314776458535L150.87333333333333,140.33778553377505L151.43333333333334,132.67610921528126L151.69466666666665,135.1905328608253L152.152,133.84428392455624L152.19866666666667,139.8247772591559L152.2313333333333,139.15262785342458L152.31533333333334,135.42933016780202L152.58133333333333,133.22452236760475L152.78666666666666,124.63514450519574L153.18800000000002,132.39033064388266L153.61266666666666,125.19274873547842L153.62199999999999,126.47473398346467L153.77133333333333,130.56705741962867L153.85533333333333,132.26057683808793L155.17600000000002,129.04340579304647L155.2973333333333,133.77397472594492L155.50266666666667,136.60578226516327L155.75933333333333,146.0042153901222L156.04866666666666,139.84296762005843L156.10933333333332,140.3307365745956L156.53866666666667,133.97620545017284L156.674,143.121549053118L156.856,139.6513044863603L158.16266666666667,137.96071941975177L158.53133333333335,126.83216047533948L158.65266666666668,132.08326855612592L158.7553333333333,134.05493486384952L158.844,136.6908429341232L158.96066666666667,135.20327364663572L159.0353333333333,126.37250699447677L159.09133333333335,125.946826483617L159.292,119.74809917882939L159.60933333333332,127.33626381637532L159.89866666666666,123.0617073248195L160.86933333333334,129.973024882371L160.902,124.68640044019668L160.944,132.26069149919346L161.17733333333334,119.81430324588469L161.19133333333332,131.9066453036486L161.28933333333333,122.6187958214771L161.434,124.9877399690314L161.52266666666665,131.4530744333755L162.15733333333336,133.27939426127674L162.53533333333334,133.31750328078033L162.54,130.63744583079801L162.69866666666667,135.14945042287516L163.33800000000002,135.9729898868405L163.36133333333333,136.0762184613533L163.48266666666666,136.875000321808L163.69733333333335,135.48130482832778L163.76733333333334,136.7699890680758L164.15,134.78362073369527L164.35066666666665,125.5628948155017L164.472,129.23045739950206L164.66333333333333,125.86396167258572L164.864,131.29295051714598L165.48,137.42704952729235L165.51266666666666,132.05145865716577L165.53133333333332,126.1186303774977L166.00733333333332,112.55901581311824L166.19400000000002,120.0811271504438L166.63266666666667,119.42613712546304L166.698,123.85084188448724L166.782,127.78380951130427L166.978,123.51128031464296L168.24733333333333,128.21838247622722L168.49466666666666,124.16517786129084L169.05,119.24537285207697L169.89933333333335,126.68855852182826L170.072,142.26911244894012L170.51066666666665,148.32666751750727L171.25266666666667,149.7334303127596L171.374,153.12822918017105L171.56066666666666,150.78088376067626L171.77533333333335,142.2274008938226L172.07866666666666,125.34924742652113L172.11133333333333,126.00128178098228L172.14866666666666,128.63360523000776L172.37266666666667,112.6650156232279L172.41466666666668,116.63302269457783L172.69,113.21028614134627L172.75066666666666,108.18386377042069L173.4273333333333,125.29724036352248L173.48333333333335,129.009085746061L173.63733333333332,121.95493809071255L173.83333333333334,116.29947689964433L174.13666666666666,127.34072127490403L174.482,117.75709486280832L174.70133333333334,121.26848612049737L175.00466666666668,124.16430427974717L175.14,102.75788794528833L175.20066666666668,107.91067110261338L175.52266666666668,118.47778456068646L175.53666666666666,133.56665488629056L175.73733333333334,123.80042921035597L175.96599999999998,124.84254465418522L176.22733333333332,120.71674572938795L176.84333333333336,129.7371723129832L176.88066666666668,121.82900869152392L176.91333333333333,137.63801489083113L177.34733333333332,143.75274408697516L177.40333333333334,140.74894317347014L177.49666666666667,133.1205543729068L178.02866666666668,136.43160479435278L178.04733333333334,127.33763312743928L178.17333333333332,127.44915378143305L178.18266666666665,121.45751216116226L178.60266666666666,127.2887465710691L178.92933333333335,125.39121324099068L179.05533333333332,128.39238045868365L179.088,130.61962537701996L179.102,137.52467322815374L179.21866666666668,139.6780277093205L179.85333333333332,135.17971470355707L180.28266666666667,130.14023326440122L180.31533333333334,134.11074151214586L180.73533333333333,127.15682116518394L180.77733333333333,126.03546342365834L180.83333333333334,134.70736444443023L180.922,142.40888816575847L181.00133333333332,148.39502921053878L181.25333333333333,147.89952976586616L181.3093333333333,143.62386471027904L181.42600000000002,114.67190124877068L181.59866666666665,120.54530638573685L181.86933333333332,123.27910725382203L182.084,132.3997035303872L182.17266666666666,135.7001426277961L182.20533333333336,137.567573599612L182.42,125.08060885009701L182.66266666666667,130.5985422507811L182.67666666666665,136.44916257226885L182.84,150.14735425012145L183.44666666666666,152.96747046869731L183.68933333333334,147.4837688157662L183.69400000000002,144.40462259621376L183.792,137.45205109004567L184.04866666666666,134.48093526066884L184.45466666666664,131.14386626455837L184.45933333333335,140.2973141714173L184.63666666666666,141.68837112181083L184.8,144.42293719699148L184.842,130.31108394251726L185.024,129.4125866352705L185.25266666666667,126.38664183102448L185.50933333333333,134.44601314658814L185.65866666666668,139.50416947079998L186.10199999999998,138.34606486960232L186.81133333333335,146.34343726984142L187.04000000000002,137.98443658247118L187.208,139.84781843696928L187.49733333333333,137.43738785441565L187.85666666666668,137.9011486696191L187.8706666666667,137.2234964267604L188.22533333333334,117.96489071552381L188.32333333333332,128.68984905955395L188.36066666666665,126.58124830768823L188.42133333333334,116.74405820906678L188.43066666666667,129.5613953003264L188.4586666666667,135.13594386208462L188.916,129.53900414462115L188.92533333333333,134.08802674917064L189.33133333333333,121.36641020383863L189.34533333333334,127.28279293064132L189.47133333333332,129.87881424823806L190.26933333333332,135.61964987992886L190.302,120.31919803840252L190.60999999999999,131.54471379049562L190.63333333333333,128.00997112978988L191.11866666666666,96.29206229268661L191.19799999999998,116.93966607219018L191.51066666666665,127.48590555008238L191.604,123.98515271564821L192.10333333333335,115.82690708346016L192.34599999999998,132.07208085118384L192.416,139.38285891150625L192.486,124.75739582521649L192.56066666666666,126.37236480906458L192.62133333333333,125.13404419527453L192.78466666666668,122.93479151160393L192.87333333333333,126.16818347244893L192.90599999999998,130.56402162875034L193.9933333333333,133.60762844238403L194.2733333333333,116.28259871942942L194.41333333333333,132.06175418657313L194.502,139.62866697532738L194.91733333333335,132.93406371802138L195.09933333333333,130.10623410930987L195.118,124.19202832877545L195.16,121.3002029763021L195.18800000000002,129.49810225513815L195.30466666666666,121.60507957893049L195.57066666666668,128.6176842935149L196.25199999999998,123.9479429936404L196.79333333333332,137.11348716603598L196.94733333333335,131.70743747031455L197.45600000000002,127.21333750769949L197.484,131.79770675385L197.526,139.33584202361325L198.12800000000001,136.16323733078048L198.2866666666667,133.20034679348504L199.48133333333334,137.21436002082586L199.57,136.7654179478215L199.77066666666667,132.02186744586876L200.09266666666667,130.26174683134056L201.09599999999998,128.69615155315574L201.56733333333332,132.80280522997703L201.824,135.47352751734624L201.894,136.17808207494048L202.21599999999998,132.77227172355342L202.37466666666666,130.7051990200744L202.72,123.97738536686421L202.79466666666664,128.08263359091387L202.846,131.29488924407892L203.00466666666665,123.02598433218395L203.37800000000001,130.22795131409276L203.66266666666667,135.56712951315814L203.66733333333335,129.58114276289243L203.93800000000002,127.13885094119865L204.03133333333335,130.8584113014456L204.23200000000003,134.2382824481611L204.25533333333334,127.51148986692824L204.59133333333335,126.45835634666767L205.24933333333334,120.84420430854178L205.35666666666668,130.43411943785026L205.36133333333333,135.6139914592225L205.996,137.27072196386786L206.444,129.3514733693859L206.7193333333333,125.85793043050154L206.77066666666667,129.59719214363685L208.096,132.46481175301383L208.28733333333332,123.87817255034068L208.614,130.6906502225801L208.7446666666667,138.65680930108837L208.98266666666666,130.33780827793268L209.43533333333335,139.62290500776373L209.58,134.2604368263702L209.60333333333335,139.55520770103513L209.68266666666668,140.28190671241205L209.92066666666668,136.80810230601654L210.09799999999998,134.37304821064097L211.05,143.32052611597575L211.386,145.2076134557996L211.876,138.89101314723607L212.282,144.14335943676193L212.338,134.99578639463334L212.48733333333334,139.43149612657223L212.618,129.26069867363407L213.024,136.11480307864014L213.07066666666668,136.26630307390232L213.09866666666667,133.92931209298334L213.11733333333333,142.01193386734397L213.262,142.28000037487507L213.27133333333336,138.02383134569783L213.33666666666667,141.41174293993097L213.36466666666666,140.3228210713755L213.70533333333333,142.47855040956193L214.858,135.3164569842898L215.2686666666667,139.4812621812328L215.39,134.96270337236658L215.81,142.2698619039818L215.936,139.29464621376778L216.26266666666666,141.57419455693505L216.57999999999998,121.15315348728667L216.65466666666669,130.94547264010575L216.96266666666668,133.95256847443338L217.18666666666664,141.29454697496442L217.26133333333334,143.14527400222377L217.39666666666665,148.05494702147166L217.51333333333335,152.90685929637277L217.602,126.09627932396387L218.274,134.61246904430357L218.31133333333332,132.46901269374825L218.61,123.68328062122734L218.736,128.16900296519145L219.36599999999999,132.96222376802262L219.39866666666666,134.84913243692878L219.4826666666667,128.93373577879743L219.9633333333333,129.22375393778393L220.07533333333333,105.8674846224207L220.122,116.06370520350285L220.18733333333333,120.19399081594642L220.47666666666666,123.12102006792796L220.92000000000002,130.18636841238492L221.228,136.79434271632027L221.28866666666667,127.18390551088198L221.43800000000002,131.62830946481085L221.522,129.6181989610165L221.56866666666667,139.33883852850127L221.66666666666666,140.32471953684527L222.17533333333333,128.1758136388382L222.50199999999998,130.48078010734605L222.95933333333335,126.62222126875334L223.50533333333334,125.99351419551489L223.68266666666665,120.2144484411459L223.83666666666667,129.01070957128886L223.916,134.2497045089936L224.098,139.58672800953548L225.22733333333335,137.11677426546757L225.302,124.27217882597957L225.97400000000002,132.18520047310787L226.21666666666664,128.1702430104569L226.422,134.84592495430007L226.58533333333335,130.60512871891447L226.72533333333334,131.83665015797834L226.83733333333333,139.44730314856835L226.94933333333333,132.23462641060718L226.98666666666665,128.25847517307457L227.03799999999998,130.15619651589307L227.04266666666666,113.54791298955605L227.32266666666666,121.63142199730287L227.44866666666667,129.7103113210036L227.46733333333333,132.39815848867553L227.53733333333332,138.48082964084637L227.65866666666668,143.58879425990744L227.71,147.56455305546513L227.76133333333334,139.55449248044593L227.9153333333333,134.20599797507737L228.312,128.44496361317783L228.55933333333334,123.37705250324338L228.578,125.00003902703892L228.63866666666667,127.14183587946356L229.012,129.43507890067127L229.03066666666666,128.99439961952396L229.15666666666667,132.90000338698883L229.19866666666667,133.3339339271459L229.60466666666665,133.84806104480137L229.63733333333334,126.85907742043406L229.84266666666664,125.53514939994207L230.09,123.86599913941541L230.25333333333333,134.39001492683124L230.272,136.2708519308482L230.55666666666667,134.62318534523715L231.00933333333333,140.94655756358404L231.18666666666667,144.90693915824733L231.40133333333333,138.8948910801774L231.406,137.55553575082706L231.42000000000002,141.3940281976163L231.68133333333333,131.3382379060328L232.07333333333332,140.2948238099095L232.18533333333335,134.05336763473665L232.414,136.3225963831682L232.47933333333336,140.2249745858156L233.17,142.85827506269584L233.31,143.99839015930417L233.58533333333335,146.0077517977762L233.82333333333332,132.8731888660815L234.78466666666668,122.3364015141362L234.82666666666665,124.21533605191692L234.92,133.6693436972496L235.06466666666668,139.7532698804366L235.074,146.00574179176039L235.704,144.5843344935065L235.872,137.7849485640696L236.0773333333333,142.08189670424397L236.35266666666666,139.22881229465014L236.40866666666668,125.62200112353284L236.93599999999998,135.63839590078902L237.10866666666666,137.15635224460982L237.25333333333336,134.25115427541388L237.41666666666666,137.34114449340873L238.11666666666667,135.445279521458L238.15866666666668,109.04030888892514L238.28466666666665,123.69795478706486L238.42466666666667,140.64764828658875L238.58333333333331,137.2684186420357L238.79333333333332,145.80578090947688L238.83066666666667,142.84440446453746L238.96133333333336,139.52577198913534L239.48866666666666,133.29340208664763L239.56333333333333,126.66387111818115L239.67066666666668,133.13488725674614L239.85266666666666,138.89918809634833L239.932,140.02740418451825L240.33333333333331,138.1126154021327L240.37533333333334,124.32006092350562L240.534,134.09305051905983L241.07066666666665,134.51001651253148L241.25266666666667,132.84468373917682L241.49533333333335,132.6421162458412L242.83933333333331,142.30122432407288L242.93733333333336,140.28917047341415L243.59533333333334,137.7159572642268L243.79600000000002,144.669876745416L244.04333333333335,145.07058233682707L244.07600000000002,148.75911617864716L244.16933333333333,154.83752241946624L244.29066666666665,150.86679081314855L244.71066666666667,141.64776607434024L244.95333333333335,143.71939731233812L245.23333333333335,146.6530734474163L245.266,145.9442358709016L245.40133333333333,142.3209398852859L245.64866666666666,136.93402738537472L245.66733333333332,130.77894830098307L245.728,129.71764942640397L245.79333333333335,131.5955158298545L245.90533333333332,137.30393164986188L245.96133333333333,139.41826917148285L246.11066666666667,138.53562626382612L246.14333333333335,144.1019727807424L246.20866666666666,133.9523425716324L246.736,137.21698852994118L246.78733333333332,135.20619360956215L246.8153333333333,132.821797096122L247.00666666666666,134.11456827452375L247.02533333333332,111.00816507850807L247.09066666666666,120.1221178948131L247.198,119.80286493556996L247.69266666666667,127.31592478385315L247.89333333333332,132.55790556199887L248.09866666666667,125.99663488865058L248.18266666666665,124.6353558745177L248.25733333333335,135.45420067477284L248.39733333333334,130.92953171385886L248.71933333333334,122.8843436471924L249.30266666666665,127.52773630486483L249.50333333333333,136.56107180228673L249.51266666666666,140.03125637526907L249.68533333333335,133.91421961151013L249.69,141.52178538088742L249.73666666666668,128.6447896906962L249.774,135.42456578905762L249.89066666666665,145.25047407483467L250.27800000000002,139.1195488985503L250.30133333333333,133.2951768380803L250.37133333333333,139.23967158478186L251.27666666666667,135.68094223385427L251.92066666666668,129.5072208925264L252.91,133.32840998349377L253.274,133.57867032514685L253.52599999999998,143.0774397096815L253.64266666666668,141.23280851385599L254.23066666666668,134.04094008031632L254.60866666666666,136.2914358689864L254.83733333333333,138.77870682889372L254.89333333333335,127.09969047533147L254.982,126.798915341818L255.25733333333332,125.5966446528955L255.79866666666666,130.493483124166L256.1673333333334,132.38183982360806L256.36333333333334,126.06157731471977L256.66666666666663,130.65769924198702" style="fill: none;" fill="none"></path></g></g></g></g><g opacity="0.2"><g><g><g><path stroke="rgb(255, 112, 67)" stroke-width="2px" d="M23.534,9.233407657254824L23.548,44.88597259738227L23.669333333333334,39.003675886175834L23.776666666666667,54.45413533394986L24.117333333333335,82.48038899627599L24.406666666666666,124.71331444111738L24.43,11.553285590626974L24.528,125.19012149220163L24.612000000000002,98.35456370765513L24.775333333333332,6.451115060936322L24.784666666666666,90.8966691466895L24.822000000000003,120.61508641459726L25.55,104.52273604680191L25.839333333333332,120.96364475922152L26.04,98.80170481584288L26.072666666666667,109.83085979250345L26.296666666666667,108.17634058405052L26.357333333333333,86.1748149259524L26.46933333333333,117.33134407346898L26.67,49.52422988143833L26.707333333333334,112.77255962653592L27.00133333333333,73.94519331238486L27.08066666666667,142.83372373540294L27.108666666666664,114.64547628164291L27.239333333333335,107.74262677674943L27.869333333333334,93.99399379573084L28.07,107.7745645710013L28.312666666666665,115.7007122730667L28.49,57.500538143244654L28.84466666666667,62.07879217646338L29.222666666666665,117.98693203926086L29.479333333333336,130.8858446587216L29.493333333333332,149.42486804114148L29.558666666666667,120.12881431525403L29.577333333333332,148.37167911366984L29.801333333333336,70.02239536968143L29.834000000000003,125.1768020892685L30.03933333333333,102.03585605865175L30.179333333333332,121.36456358297303L30.445333333333334,128.74067748947576L30.58066666666667,97.26906234025955L30.655333333333335,106.85818725147031L30.73,98.38132240013644L31.229333333333333,127.64740746942434L31.43,115.41444101929665L31.444,101.26598617705433L31.94333333333333,131.44051806628704L32.046,97.58592266386205L32.09733333333333,107.40044640004635L32.284,95.30633262748069L32.36333333333333,137.39887084608728L32.424,146.13536814532497L32.839333333333336,133.88651072437113L33.11933333333334,122.58638802035287L33.544000000000004,97.00787736069074L33.6,104.0909524140033L33.74933333333333,139.69959689270365L33.77733333333333,99.08700498803094L33.894,128.18239549479702L34.104,110.54533006928183L34.486666666666665,124.15371369367296L34.706,130.3029619306326L34.785333333333334,79.74886838143523L34.794666666666664,114.82552799447015L34.818,120.08691394329071L34.934666666666665,153.32870591567323L34.93933333333333,146.55015185610816L34.995333333333335,125.65375899862161L35.01866666666666,123.41720226271585L35.153999999999996,134.01222382892263L35.224,117.40177745981649L35.867999999999995,120.48554892702535L36.12466666666667,128.4017340513793L37.184,128.9528468264775L37.51533333333334,135.29571794108912L37.529333333333334,129.83607549694452L37.800000000000004,120.29052337597719L38.089333333333336,141.29706805538046L38.41133333333333,102.88218362900345L38.47666666666667,111.65267477794126L38.486,139.95123889771375L38.49066666666666,127.52154450660402L38.76133333333333,158.09366836602038L39.578,115.1295604502613L40.222,137.08274183083665L40.23133333333333,97.50809826769613L40.464666666666666,112.0598157170144L40.796,103.33210610666059L41.03866666666667,92.7283567948775L41.13666666666667,128.45395666089925L41.16933333333333,118.72798117859796L41.668666666666674,141.00207505036485L41.79933333333333,112.33106517791748L41.93,127.75124126672745L42.17266666666667,80.85739996758375L42.462,109.68148107013918L42.919333333333334,117.01254758103326L43.064,119.49014235084707L43.08733333333333,120.38019856404176L43.483999999999995,91.2026677429676L43.49333333333333,142.69797312400559L43.87133333333333,113.57533238963649L44.30066666666667,61.076935700394884L44.38,118.70534059134397L44.477999999999994,134.09086944840172L45.10333333333333,122.0292569371787L45.122,107.3480439606038L45.159333333333336,130.8540327454155L45.681999999999995,117.23375636881048L45.74733333333333,94.50854115323588L45.92466666666667,131.54760678518903L45.98066666666667,109.77839740975335L46.17666666666666,129.91398980807176L46.535999999999994,141.27397189898923L46.90466666666667,78.31715844707057L46.914,143.34191410514444L47.166,130.80225371637127L47.29666666666667,135.0418999940157L47.78666666666666,128.1527055745775L48.28133333333333,130.28040526400915L48.346666666666664,126.25402528589422L48.63133333333333,121.89135136387564L49.233333333333334,144.6509680436416L49.839999999999996,143.20081655071542L50.04533333333333,145.3219674337994L50.442,148.48176799511367L50.535333333333334,127.78017590127207L50.70333333333334,151.65799002552575L50.736,121.71541775627568L50.903999999999996,133.0786367857998L51.002,134.81249096176842L51.291333333333334,111.46227085590363L51.38466666666667,124.4004403474656L51.90266666666667,116.7294173565778L51.94933333333333,134.84915828298438L52.27133333333334,137.5197764973749L52.332,106.39897955547681L52.36,136.8785569423979L52.42066666666667,154.15399638224733L52.68666666666667,103.44584253836761L52.794,118.53992103988475L53.092666666666666,144.34731323068792L53.76466666666667,114.71125207299536L54.016666666666666,120.42051043835554L54.151999999999994,104.02506273036653L54.404,131.99324931068853L54.586000000000006,141.6072327115319L54.6,138.01129363612696L54.656000000000006,127.76742595976049L54.80066666666667,148.0879554504698L55.32333333333333,108.77455081587487L55.846,135.09094560823658L55.96733333333333,133.4048182937232L56.49933333333333,147.34051036021927L56.53666666666666,127.91677471047097L56.728,125.1042527041652L57.157333333333334,131.343308004466L57.455999999999996,121.718007307161L57.68,134.52545243366197L57.787333333333336,103.53013481741601L58.10466666666667,148.00319561362267L58.15133333333333,88.31346026333895L58.16533333333333,119.76256670057774L58.23533333333333,141.42636576972225L58.38933333333333,98.7109866142273L59.23866666666666,100.47244468331337L59.55133333333333,142.938201923262L59.682,151.27473349733785L59.72866666666666,125.71018363399938L59.892,142.0792802639983L60.629333333333335,146.61601156809112L60.97933333333333,135.87002278187057L61.51133333333333,144.73531726883218L61.702666666666666,63.887293753298835L62.230000000000004,116.99654871225357L62.36533333333333,133.22542595727876L62.388666666666666,131.77338924733075L62.43066666666667,151.43123648180202L62.85066666666667,140.54530105265707L62.864666666666665,156.07997185601428L62.995333333333335,129.3703279860995L63.041999999999994,110.99642144143581L63.476000000000006,138.70413037321785L63.63466666666667,140.35718696496704L63.91466666666667,104.3136657787995L64.49333333333334,124.99673838777974L64.76866666666666,112.10367024080321L64.89,143.40945522690362L64.904,117.29959809780121L65.002,142.4031119942665L65.03466666666667,137.02509435198525L65.30533333333332,154.81102598458529L65.33333333333333,102.99683719331568L65.59466666666667,131.01859510757706L66.55133333333333,137.51911712099206L66.81266666666667,134.3198948434808L66.962,119.00532687387683L67.36800000000001,130.29436006600207L67.522,114.10340895165096L67.89066666666666,136.16088569299743L67.92333333333333,127.18980025974187L67.984,131.31690897182986L68.264,107.32343723286282L68.404,113.6920539980585L68.51133333333334,154.86911104958165L68.59533333333333,95.86311004514044L69.272,122.38612342422658L69.57066666666667,136.20469825647095L70.27533333333334,135.03884288533166L70.39666666666668,152.18516743792728L71.29266666666666,122.46126236021519L71.32533333333333,116.14652863415806L71.85266666666666,126.09600273858419L71.86666666666666,140.54040967876261L71.96466666666667,52.34468238733031L72.24000000000001,126.28992533277383L72.44066666666666,141.89979201826185L72.83733333333333,113.37322753396901L72.982,99.63625952059573L73.05666666666667,116.62876055457376L73.136,159.8326716721058L73.32266666666668,98.22346169975671L73.53733333333334,134.4014477133751L73.542,139.81933964382517L73.64466666666667,137.4221648153934L73.808,120.0081184655428L73.92933333333333,130.97673669592902L73.97133333333333,117.29708647321573L74.214,144.90999206697398L74.228,130.32969664579088L74.38666666666667,126.5151683051478L74.40533333333333,145.8969915942712L74.51266666666666,93.55358432097867L74.54066666666667,127.15476339649072L74.55,147.64753098989075L74.76466666666667,130.8440941450271L75.14733333333332,140.92729577422142L75.236,135.15291499956086L75.27799999999999,130.51920141821557L75.59533333333334,130.49169343439016L75.60466666666667,163.6560356562788L75.88466666666667,135.88828151334417L76.62666666666667,137.01165506243706L76.87400000000001,125.95710810070688L76.96733333333333,136.2328776053407L77.112,113.2243823070418L77.15400000000001,148.96852863241327L77.23333333333333,133.87395859577438L77.31266666666667,150.3193420761011L77.69533333333334,90.87709166245028L77.80266666666667,105.3945095512L77.86800000000001,132.76594851640138L78.21333333333332,128.41113316199997L78.74533333333333,120.09464063563131L79.19333333333333,129.16556764190847L79.21666666666667,147.26987316662616L79.38466666666666,138.5913050797853L79.52933333333334,123.61225179108708L79.982,108.35260987417266L80.10333333333334,148.2825973643498L80.122,151.09307830103418L80.19666666666666,143.74492195316336L80.39266666666667,140.67726024985313L80.69133333333333,117.16332897679374L80.70533333333333,146.5278349627148L80.78,143.1331345621835L81.22800000000001,130.6772419485179L81.47533333333332,121.95184614983472L82.46933333333332,127.86015226217835L82.6,58.76542585275389L83.09466666666667,136.25352807478473L83.43066666666667,143.64116608216003L83.72,137.0524824491956L84.084,126.63353236019611L84.16333333333333,108.14748987013644L84.28933333333333,81.45957844636656L84.38733333333333,116.01519884169102L84.44333333333333,163.03590415689078L84.51333333333334,139.96816688776016L84.77933333333334,129.9636648270217L85.12,117.88437503440812L85.63333333333334,122.66785696961664L85.88066666666667,148.00393891063604L85.89933333333335,115.08851726759563L86.35666666666667,121.42927238345146L86.55266666666667,138.4692605056546L86.79066666666667,142.7374517863447L86.89800000000001,133.41005733880132L87.17333333333333,132.0963398109783L87.18733333333334,116.22221904857591L87.626,109.37905509498987L87.78466666666667,139.4571202194149L87.948,133.15442310950974L88.13,111.26189236749302L88.55933333333334,124.71080281653188L88.66199999999999,149.4568627815355L89.04466666666667,122.1858947940848L89.70266666666667,160.31852117113093L90.01066666666667,137.95753048360348L90.04333333333334,139.51283752376384L90.08533333333332,107.68506921285933L90.16466666666666,123.67204524034804L90.24866666666667,118.74328470501034L90.52399999999999,117.15769430588594L90.75733333333334,147.1485149433667L90.97666666666667,152.8088176094673L91.27066666666667,121.5832667404955L91.62066666666666,131.11920994926584L91.64866666666666,109.87228061800653L91.78866666666666,111.62436355379495L91.83066666666667,142.91105359928176L91.87733333333334,130.67610302567482L92.30666666666667,109.44828362085603L92.34866666666666,126.03985983675176L92.36733333333332,108.42880980670452L92.44666666666667,131.951960360462L92.74533333333333,102.66507496346127L92.834,129.24411735209554L93.464,157.64493576301768L93.758,138.95181012560022L93.97266666666667,95.15540137345141L94.178,163.03624283657834L94.57933333333332,132.6557607285001L94.85,150.57403219829905L95.54533333333333,93.36096249656245L95.55466666666666,147.22623743590984L95.704,143.82524898241866L95.84866666666666,144.97138300538063L96.124,120.44009391692552L96.79133333333334,149.62703284011647L96.90333333333334,144.65204702317715L96.94533333333334,132.21373278444463L97.202,121.55488358438015L97.90666666666667,145.6995083676143L97.972,79.35736665129662L98.44800000000001,143.43821302869102L98.54599999999999,133.1067501970313L99.16666666666667,119.31491007994524L99.50266666666667,103.68367360532284L99.60533333333333,141.5572879476981L99.68466666666666,111.69869924946263L99.89933333333333,151.20203125680035L100.058,129.99880359389564L100.36133333333333,140.65881569412622L100.73466666666667,114.83924302323297L101.08933333333333,125.3078561425209L101.25733333333332,135.83011252771723L101.77533333333334,126.60034175081685L101.78,142.12100680036977L101.93866666666666,122.52183507247403L102.004,146.7796298231591L102.2,143.4640186225826L102.97933333333334,149.5529608950019L103.12400000000001,107.61296340823174L103.28266666666667,150.47227243943647L103.78666666666666,151.91740967468783L103.94066666666666,140.63369345394048L104.02466666666666,110.44197581843898L104.03399999999999,129.683160119436L104.146,105.12487256526947L104.15066666666667,133.76899786428973L104.16466666666666,148.10144569182938L104.25333333333334,120.9776055555452L104.41666666666667,148.96073600243437L104.56133333333334,122.40588673271917L104.74333333333333,141.55934400314635L104.79,151.64038167893887L105.20533333333333,130.13710479302839L105.27066666666667,114.27843741530722L105.406,146.02773394232446L105.44333333333333,121.62521506710485L105.57866666666666,126.4805930053646L106.04066666666667,149.21054973656481L107.11866666666667,129.60607902028343L107.24933333333334,133.2503084242344L107.29133333333333,112.89290181073277L107.422,107.30830754204229L107.58533333333332,76.14412962848489L107.64133333333334,144.7892512597821L107.94,132.68541468273511L108.57,142.16075520759279L108.822,148.4380033862862L109.44266666666665,113.07987697557971L109.44733333333335,100.34793643924324L110.10066666666667,144.81604292108253L110.66533333333334,119.59567853808403L110.698,155.6067524118857L111.28133333333334,119.90176704932342L111.80866666666667,138.7007315876809L111.89733333333334,138.62168434804136L112.028,92.07541832327843L112.13066666666667,142.43855047767812L112.22866666666667,107.7450784580274L112.54599999999999,139.5393444543535L112.79333333333334,127.93381059847094L113.064,88.09277298233725L113.26933333333334,127.66109252653338L114.268,112.7484324452552L114.35199999999999,115.64017552679235L114.45466666666667,134.7300868969072L114.48266666666666,142.55444486845624L114.99133333333333,142.3432885733518L115.05666666666666,150.5582581169226L115.108,109.44788799502633L115.36466666666666,136.68500599671495L115.416,127.12402446838944L115.444,118.49070159007202L115.71933333333334,109.91110589829358L115.84533333333333,139.6979124857621L115.95266666666667,125.50607067752968L116.27933333333334,129.16309797763824L116.382,129.2412760393186L116.536,157.99254100905225L116.64800000000001,103.89698186516762L116.83466666666666,138.45214069702408L116.91866666666667,138.8689984462478L116.94666666666667,135.32172134789556L116.96066666666667,150.3767857477069L117.31533333333333,150.97941979562694L117.32,103.1074026240544L117.53933333333333,115.28381256352773L117.684,143.27933928641409L117.81,145.54943130571735L117.824,132.99956556883726L117.84733333333334,164.85189864716747L118.17866666666666,150.5586417540908L118.23,114.67898459055208L118.45866666666666,109.99267675118014L118.72466666666666,134.50280585207722L118.93466666666667,94.25454937057063L119.126,144.28221180154517L119.18666666666667,151.1015033329075L119.19133333333335,118.26021357828921L119.294,155.19516367939386L119.36866666666667,103.51487924564968L119.88666666666666,151.0208855786107L119.98466666666667,143.03183936395428L120.30666666666666,96.84603043036029L120.32066666666667,127.7247703021223L120.32533333333333,126.76802116496995L120.54933333333334,91.6347870582884L120.66133333333333,138.2049225081097L121.27733333333333,131.82800359482115L121.65066666666667,139.7820249348879L121.71133333333333,139.5754602971402L122.01,145.34595374830744L122.31333333333333,126.65729988163167L122.42066666666666,130.54039737175813L122.81266666666666,122.00146721980788L122.82666666666667,135.63604007525876L122.85,114.96191100776196L123.16266666666667,143.465780955824L123.24666666666666,151.82024756751278L123.59666666666666,126.43618700314651L123.77866666666667,104.923762768507L124.51599999999999,129.70557891645214L124.712,131.43602831255308L124.71666666666667,129.85329121486708L125.02,134.54588111286813L125.048,150.80507168851116L125.16933333333334,113.69593832438642L125.26733333333334,127.51955438879403L125.29533333333333,132.56951429762623L126.03266666666667,100.53680581260811L127.148,116.64551470902833L127.20866666666666,146.12320864539254L127.36733333333332,122.3038692176342L127.47933333333333,151.53546590493485L127.54466666666667,143.21191505410454L127.67533333333334,131.45351976969025L128.20733333333334,139.98463930866936L128.37066666666666,121.09664097563788L128.54333333333332,136.68341150473464L128.968,140.16550025614828L129.57466666666667,114.6022871285677L129.92466666666667,163.33741299943492L130.34466666666668,117.55712054127997L130.35866666666666,136.94026258316907L131.04466666666667,115.0484271835197L131.06333333333333,125.50230024348608L131.264,141.03630267896435L131.3153333333333,133.94299530305645L131.362,145.00065931677818L131.52066666666667,136.34643420712516L131.56733333333332,143.52412977137348L131.68866666666668,122.75121413306758L131.89866666666668,139.0104526633566L132.006,143.77225010706618L132.244,140.51649829338896L132.356,147.9480927281759L132.44466666666665,100.38398035006091L132.664,144.11607592756098L133.19133333333335,133.1824705831029L133.42,151.0570014213974L133.798,146.47307375412095L133.84933333333333,118.43816128102216L133.94266666666667,138.45990335534918L134.28333333333333,148.69955102286556L134.54933333333332,122.48286592824891L135.04866666666666,133.3215090849183L135.70666666666668,138.1489414532076L135.88866666666667,129.49288807267493L136.024,144.99959232590416L136.43,140.07108355245808L136.654,121.39823373881254L136.66333333333333,125.89393984323198L136.84066666666666,113.72028729590504L136.948,127.5338628563014L137.27933333333334,131.8645330464298L137.93733333333333,137.578838638284L138.23600000000002,146.3169484124942L138.69333333333333,148.4267190586437L138.73066666666668,150.96437402543697L139.44,127.80534010177308L139.54266666666666,114.55799501863393L139.69666666666666,147.50549831986427L140.042,130.84445380487224L140.22400000000002,117.94548723643476L140.62533333333332,135.8822991712527L140.96599999999998,149.60380780561403L141.08266666666668,97.20343041284517L141.14333333333335,138.08661240203813L141.18533333333332,138.29062345488504L141.554,148.43972975354302L141.82933333333332,114.30469857833602L142.36133333333333,146.89588387378237L142.43133333333336,159.69036626003006L142.8,100.98012253777549L143.206,137.5487111319195L143.62133333333333,142.59995982186362L143.79399999999998,138.57869900221175L143.95733333333334,135.02246637371454L144.30266666666665,136.13106989183208L144.88133333333332,136.93100733648646L144.97933333333336,113.41241247410125L145.02133333333333,111.05446454611692L145.096,148.08552774651483L145.39,111.41121114654973L145.39466666666667,118.60033789954402L145.45999999999998,100.87572527338158L146.034,161.12419219315052L146.08533333333335,133.95220858942378L146.552,110.80270265449177L146.86466666666666,150.43487081270325L147.798,99.81005914644763L148.39066666666668,122.23843510313466L148.39533333333335,134.04471310160378L148.53066666666666,109.14956214211203L148.54,150.01912201466888L149.002,147.1828714500774L149.702,142.362356539477L150.00066666666666,145.57059429044074L150.02866666666668,140.06880570677194L150.05666666666667,135.02904215455055L150.07533333333333,108.95942796495828L150.08,125.76798696545038L150.61666666666667,133.6650142087178L150.87333333333333,156.8747421875596L151.43333333333334,121.18359473754059L151.69466666666665,138.96216832914135L152.152,131.8249105201526L152.19866666666667,148.7955172610554L152.2313333333333,138.14440374482763L152.31533333333334,129.84438363936815L152.58133333333333,129.9173106673089L152.78666666666666,111.75107771158218L153.18800000000002,144.023109851913L153.61266666666666,114.3963758728721L153.62199999999999,128.39771185544404L153.77133333333333,136.70554257387465L153.85533333333333,134.8008559657769L155.17600000000002,124.21764922548424L155.2973333333333,140.8698281252926L155.50266666666667,140.85349357399076L155.75933333333333,160.1018650775606L156.04866666666666,130.60109596496278L156.10933333333332,141.06239000640133L156.53866666666667,124.4444087635387L156.674,156.83956445753574L156.856,134.44593763622373L158.16266666666667,135.42484181983903L158.53133333333335,110.13932205872104L158.65266666666668,139.95993067730558L158.7553333333333,137.01243432543495L158.844,140.6447050395337L158.96066666666667,132.9719197154045L159.0353333333333,113.1263570162383L159.09133333333335,125.30830571732737L159.292,110.45000822164796L159.60933333333332,138.71851077269423L159.89866666666666,116.64987258748576L160.86933333333334,140.34000121869823L160.902,116.75646377693525L160.944,143.62212808768857L161.17733333333334,101.14472086592153L161.19133333333332,150.04515839029443L161.28933333333333,108.68702159821987L161.434,128.54115619036287L161.52266666666665,141.15107612989166L162.15733333333336,136.01887400312856L162.53533333333334,133.3746668100357L162.54,126.61735965582459L162.69866666666667,141.91745731099084L163.33800000000002,137.20829908278856L163.36133333333333,136.23106132312253L163.48266666666666,138.07317311248997L163.69733333333335,133.39076158810747L163.76733333333334,138.70301542769778L164.15,131.8040682321245L164.35066666666665,111.73180593821137L164.472,134.73180127550256L164.66333333333333,120.81421808221124L164.864,139.43643378398636L165.48,146.62819804251194L165.51266666666666,123.98807235197589L165.53133333333332,117.2193879579956L166.00733333333332,92.2195939665491L166.19400000000002,131.36429415643215L166.63266666666667,118.4436520879919L166.698,130.48789902302354L166.782,133.68326095152986L166.978,117.10248651965097L168.24733333333333,135.27903571860358L168.49466666666666,118.08537093888631L169.05,111.86566533825614L169.89933333333335,137.8533370264552L170.072,165.63994333960792L170.51066666666665,157.41300012035802L171.25266666666667,151.843574505638L171.374,158.22042748128825L171.56066666666666,147.25986563143405L171.77533333333335,129.3971765935421L172.07866666666666,100.03201722556895L172.11133333333333,126.97933331267402L172.14866666666666,132.582090403546L172.37266666666667,88.71213121305814L172.41466666666668,122.5850333016027L172.69,108.07618131149898L172.75066666666666,100.64423021403226L173.4273333333333,150.9673052531752L173.48333333333335,134.57685381986877L173.63733333333332,111.37371660768986L173.83333333333334,107.81628511304206L174.13666666666666,143.90258783779362L174.482,103.3816552446647L174.70133333333334,126.53557300703093L175.00466666666668,128.5080315186219L175.14,70.64826344360004L175.20066666666668,115.63984583860093L175.52266666666668,134.32845474779606L175.53666666666666,156.1999603746967L175.73733333333334,109.15109069645405L175.96599999999998,126.40571781992912L176.22733333333332,114.52804734219204L176.84333333333336,143.26781218837607L176.88066666666668,109.96676325933501L176.91333333333333,161.3515241897919L177.34733333333332,152.92483788119122L177.40333333333334,136.2432418032126L177.49666666666667,121.67797117206185L178.02866666666668,141.39818042652175L178.04733333333334,113.69667562706903L178.17333333333332,127.6164347624237L178.18266666666665,112.47004973075606L178.60266666666666,136.0355981859294L178.92933333333335,122.544913245873L179.05533333333332,132.8941312852231L179.088,133.9604927545244L179.102,147.8822450048544L179.21866666666668,142.90805943107063L179.85333333333332,128.43224519491196L180.28266666666667,122.58101110566746L180.31533333333334,140.0665038837628L180.73533333333333,116.72594064474106L180.77733333333333,124.35342681136999L180.83333333333334,147.71521597558802L180.922,153.96117374775085L181.00133333333332,157.37424077770928L181.25333333333333,147.1562805988572L181.3093333333333,137.21036712689832L181.42600000000002,71.24395605650814L181.59866666666665,129.35541409118608L181.86933333333332,127.37980855594984L182.084,146.08059794523498L182.17266666666666,140.6508012739095L182.20533333333336,140.3687200573358L182.42,106.35016172582453L182.66266666666667,138.87544235180724L182.67666666666665,145.22509305450052L182.84,170.69464176690036L183.44666666666666,157.19764479656112L183.68933333333334,139.25821633636951L183.69400000000002,139.78590326688507L183.792,127.02319383079356L184.04866666666666,130.02426151660356L184.45466666666664,126.13826277039267L184.45933333333335,154.02748603170568L184.63666666666666,143.77495654740116L184.8,148.52478630976245L184.842,109.14330406080595L185.024,128.06484067440033L185.25266666666667,121.84772462465547L185.50933333333333,146.53507011993364L185.65866666666668,147.09140395711768L186.10199999999998,136.60890796780586L186.81133333333335,158.33949587020007L187.04000000000002,125.44593555141579L187.208,142.64289121871644L187.49733333333333,133.8217419805852L187.85666666666668,138.59678989242423L187.8706666666667,136.20701806247234L188.22533333333334,89.07698214866899L188.32333333333332,144.77728657559916L188.36066666666665,123.41834717988968L188.42133333333334,101.98827306113459L188.43066666666667,148.78740093721584L188.4586666666667,143.4977667047219L188.916,121.14359456842595L188.92533333333333,140.91156065599486L189.33133333333333,102.2839853858406L189.34533333333334,136.1573670208454L189.47133333333332,133.77284622463316L190.26933333333332,144.23090332746506L190.302,97.368520276113L190.60999999999999,148.38298741863534L190.63333333333333,122.70785713873126L191.11866666666666,48.71519903703169L191.19799999999998,147.9110717414455L191.51066666666665,143.3052647669207L191.604,118.73402346399698L192.10333333333335,103.58953863517806L192.34599999999998,156.43984150276944L192.416,150.34902600198984L192.486,102.81920119578189L192.56066666666666,128.7948182848367L192.62133333333333,123.27656327458946L192.78466666666668,119.63591248609804L192.87333333333333,131.0182714137164L192.90599999999998,137.15777886320245L193.9933333333333,138.1730386628346L194.2733333333333,90.29505413499746L194.41333333333333,155.7304873872887L194.502,150.97903615845874L194.91733333333335,122.89215883206239L195.09933333333333,125.86448969624259L195.118,115.3207196579738L195.16,116.96246494759212L195.18800000000002,141.79495117339223L195.30466666666666,109.76554556461899L195.57066666666668,139.13659136539155L196.25199999999998,116.94333104382864L196.79333333333332,156.8618034246293L196.94733333333335,123.5983629267324L197.45600000000002,120.47218756377697L197.484,138.67426062307575L197.526,150.64304492825812L198.12800000000001,131.4043302915313L198.2866666666667,128.75601098754188L199.48133333333334,143.2353798618371L199.57,136.09200483831495L199.77066666666667,124.90654169293968L200.09266666666667,127.62156590954825L201.09599999999998,126.34775863587856L201.56733333333332,138.96278574520892L201.824,139.47961094840005L201.894,137.23491391133177L202.21599999999998,127.66355619647287L202.37466666666666,127.60458996485582L202.72,113.88566488704897L202.79466666666664,134.24050592698833L202.846,136.1132727238265L203.00466666666665,110.6226269643415L203.37800000000001,141.03090178695592L203.66266666666667,143.57589681175622L203.66733333333335,120.60216263749383L203.93800000000002,123.47541320865804L204.03133333333335,136.43775184181604L204.23200000000003,139.30808916823432L204.25533333333334,117.42130099507897L204.59133333333335,124.8786560662768L205.24933333333334,112.42297625135294L205.35666666666668,144.81899213181302L205.36133333333333,143.38379949128085L205.996,139.75581772083586L206.444,117.47260047766297L206.7193333333333,120.61761602217501L206.77066666666667,135.2060847133398L208.096,136.76624116707933L208.28733333333332,110.99821374633096L208.614,140.90936673093927L208.7446666666667,150.60604791885072L208.98266666666666,117.85930674319917L209.43533333333335,153.55055010251024L209.58,126.21673455427995L209.60333333333335,147.49736401303247L209.68266666666668,141.37195522947744L209.92066666666668,131.59739569642326L210.09799999999998,130.72046706757763L211.05,156.74174297397786L211.386,148.03824446553534L211.876,129.41611268439075L212.282,152.02187887105075L212.338,121.27442683144048L212.48733333333334,146.0850607244806L212.618,114.0045024942268L213.024,146.39595968614924L213.07066666666668,136.49355306679553L213.09866666666667,130.42382562160492L213.11733333333333,154.13586652888492L213.262,142.6821001361717L213.27133333333336,131.639577801932L213.33666666666667,146.49361033128068L213.36466666666666,138.6894382685423L213.70533333333333,145.7121444168416L214.858,124.57331684638153L215.2686666666667,145.72846997664735L215.39,128.18486515906724L215.81,153.23059970140457L215.936,134.83182267844677L216.26266666666666,144.993517071686L216.57999999999998,90.52159188281408L216.65466666666669,145.63395136933434L216.96266666666668,138.46321222592485L217.18666666666664,152.30751472576097L217.26133333333334,145.92136454311284L217.39666666666665,155.41945655034348L217.51333333333335,160.1847277087244L217.602,85.88040936535056L218.274,147.3867536248131L218.31133333333332,129.25382816791534L218.61,110.5046825124459L218.736,134.89758648113772L219.36599999999999,140.15205497226933L219.39866666666666,137.67949544028804L219.4826666666667,120.0606407916004L219.9633333333333,129.65878117626363L220.07533333333333,70.83308064937592L220.122,131.35803607512605L220.18733333333333,126.38941923461176L220.47666666666666,127.5115639459003L220.92000000000002,140.7843909290704L221.228,146.70630417222327L221.28866666666667,112.76824970272455L221.43800000000002,138.2949153957042L221.522,126.60303320532495L221.56866666666667,153.9197978797284L221.66666666666666,141.80354104936123L222.17533333333333,109.95245479182765L222.50199999999998,133.93822981010783L222.95933333333335,120.83438301086426L223.50533333333334,125.05045358565721L223.68266666666665,111.54584980959243L223.83666666666667,142.20510126650333L223.916,142.10819691555068L224.098,147.5922632603483L225.22733333333335,133.4118436493657L225.302,105.00528566674754L225.97400000000002,144.0547329438004L226.21666666666664,122.14780681648038L226.422,144.85944787006486L226.58533333333335,124.24393436583607L226.72533333333334,133.6839323165742L226.83733333333333,150.86328263445333L226.94933333333333,121.41561130366541L226.98666666666665,122.29424831677566L227.03799999999998,133.00277853012085L227.04266666666666,88.63548770005053L227.32266666666666,133.75668550892308L227.44866666666667,141.82864530655473L227.46733333333333,136.42992924018338L227.53733333333332,147.60483636910266L227.65866666666668,151.25074118849906L227.71,153.52819124880162L227.76133333333334,127.53940161791715L227.9153333333333,126.18325621702455L228.312,119.80341207032853L228.55933333333334,115.77518583834171L228.578,127.43451881273225L228.63866666666667,130.35453115810049L229.012,132.8749434324828L229.03066666666666,128.33338069780305L229.15666666666667,138.75840903818607L229.19866666666667,133.9848297373815L229.60466666666665,134.6192517212846L229.63733333333334,116.37560198388316L229.84266666666664,123.54925736920401L230.09,121.36227374862543L230.25333333333333,150.17603860795498L230.272,139.0921074368737L230.55666666666667,132.15168546682054L231.00933333333333,150.4316158911044L231.18666666666667,150.84751155024225L231.40133333333333,129.8768189630725L231.406,135.54650275680154L231.42000000000002,147.1517668678002L231.68133333333333,116.2545524686575L232.07333333333332,153.72970266572455L232.18533333333335,124.69118337197736L232.414,139.7264395058155L232.47933333333336,146.07854188978672L233.17,146.80822577801618L233.31,145.70856280421668L233.58533333333335,149.02179425548422L233.82333333333332,113.17134446853942L234.78466666666668,106.53122048621827L234.82666666666665,127.03373785858804L234.92,147.85035516524857L235.06466666666668,148.8791591552171L235.074,155.38444965874606L235.704,142.45222354612568L235.872,127.58586966991425L236.0773333333333,148.52731891450557L236.35266666666666,134.94918568025935L236.40866666666668,105.21178436685692L236.93599999999998,150.66298806667328L237.10866666666666,139.43328676034105L237.25333333333336,129.89335732162L237.41666666666666,141.976129820401L238.11666666666667,132.60148206353188L238.15866666666668,69.43285294012588L238.28466666666665,145.68442363427445L238.42466666666667,166.07218853587455L238.58333333333331,132.19957417520612L238.79333333333332,158.6118243106387L238.83066666666667,138.40233979712832L238.96133333333336,134.5478232760321L239.48866666666666,123.94484723291613L239.56333333333333,116.71957466548139L239.67066666666668,142.84141146459362L239.85266666666666,147.5456393557516L239.932,141.71972831677306L240.33333333333331,135.24043222855437L240.37533333333334,103.631229205565L240.534,148.75253491239116L241.07066666666665,135.13546550273895L241.25266666666667,130.34668457914483L241.49533333333335,132.3382650058378L242.83933333333331,156.78988644142044L242.93733333333336,137.27108969742602L243.59533333333334,133.85613745044577L243.79600000000002,155.1007559671998L244.04333333333335,145.6716407239437L244.07600000000002,154.29191694137725L244.16933333333333,163.95513178069484L244.29066666666665,144.9106934036721L244.71066666666667,127.81922896612774L244.95333333333335,146.82684416933492L245.23333333333335,151.05358765003356L245.266,144.88097950612956L245.40133333333333,136.88599590686235L245.64866666666666,128.85365863550794L245.66733333333332,121.54632967439565L245.728,128.12570111453533L245.79333333333335,134.41231543503025L245.90533333333332,145.86655537987298L245.96133333333333,142.58977545391429L246.11066666666667,137.21166190234098L246.14333333333335,152.4514925561168L246.20866666666666,118.72789725796744L246.736,142.1139574674043L246.78733333333332,132.1900012289936L246.8153333333333,129.2452023259618L247.00666666666666,136.0537250421264L247.02533333333332,76.34856028448452L247.09066666666666,133.79304711927068L247.198,119.32398549670523L247.69266666666667,138.58551455627787L247.89333333333332,140.42087672921747L248.09866666666667,116.15472887862812L248.18266666666665,122.5934373533184L248.25733333333335,151.68246787515554L248.39733333333334,124.1425282724879L248.71933333333334,110.81656154719266L249.30266666666665,134.49282529137352L249.50333333333333,150.11107504841956L249.51266666666666,145.23653323474258L249.68533333333335,124.73866446587174L249.69,152.93313403495333L249.73666666666668,109.32929615540937L249.774,145.59422993659973L249.89066666666665,159.98933650350028L250.27800000000002,129.9231611341238L250.30133333333333,124.55861874737523L250.37133333333333,148.1564137048342L251.27666666666667,130.34284820746294L251.92066666666668,120.24663888053462L252.91,139.06019361994484L253.274,133.95406083762646L253.52599999999998,157.32559378648347L253.64266666666668,138.46586172011766L254.23066666666668,123.2531374300068L254.60866666666666,139.66717955199155L254.83733333333333,142.5096132687547L254.89333333333335,109.58116594498807L254.982,126.34775264154783L255.25733333333332,123.79323861951178L255.79866666666666,137.83874083107168L256.1673333333334,135.2143748727712L256.36333333333334,116.58118355138734L256.66666666666663,137.55188213288784" style="fill: none;" fill="none"></path></g></g></g></g></g></g><g transform="translate(50, 177)" clip-path="url(#clip_1)"><clipPath id="clip_1"><rect width="280" height="23"></rect></clipPath><g><g><line x1="0" y1="0" x2="0" y2="5" style="visibility: inherit;" fill="rgb(0, 0, 0)" stroke="rgb(204, 204, 204)" stroke-width="1px"></line><line x1="23.333333333333332" y1="0" x2="23.333333333333332" y2="5" style="visibility: inherit;" fill="rgb(0, 0, 0)" stroke="rgb(204, 204, 204)" stroke-width="1px"></line><line x1="46.666666666666664" y1="0" x2="46.666666666666664" y2="5" style="visibility: inherit;" fill="rgb(0, 0, 0)" stroke="rgb(204, 204, 204)" stroke-width="1px"></line><line x1="70" y1="0" x2="70" y2="5" style="visibility: inherit;" fill="rgb(0, 0, 0)" stroke="rgb(204, 204, 204)" stroke-width="1px"></line><line x1="93.33333333333333" y1="0" x2="93.33333333333333" y2="5" style="visibility: inherit;" fill="rgb(0, 0, 0)" stroke="rgb(204, 204, 204)" stroke-width="1px"></line><line x1="116.66666666666667" y1="0" x2="116.66666666666667" y2="5" style="visibility: inherit;" fill="rgb(0, 0, 0)" stroke="rgb(204, 204, 204)" stroke-width="1px"></line><line x1="140" y1="0" x2="140" y2="5" style="visibility: inherit;" fill="rgb(0, 0, 0)" stroke="rgb(204, 204, 204)" stroke-width="1px"></line><line x1="163.33333333333334" y1="0" x2="163.33333333333334" y2="5" style="visibility: inherit;" fill="rgb(0, 0, 0)" stroke="rgb(204, 204, 204)" stroke-width="1px"></line><line x1="186.66666666666666" y1="0" x2="186.66666666666666" y2="5" style="visibility: inherit;" fill="rgb(0, 0, 0)" stroke="rgb(204, 204, 204)" stroke-width="1px"></line><line x1="210" y1="0" x2="210" y2="5" style="visibility: inherit;" fill="rgb(0, 0, 0)" stroke="rgb(204, 204, 204)" stroke-width="1px"></line><line x1="233.33333333333334" y1="0" x2="233.33333333333334" y2="5" style="visibility: inherit;" fill="rgb(0, 0, 0)" stroke="rgb(204, 204, 204)" stroke-width="1px"></line><line x1="256.66666666666663" y1="0" x2="256.66666666666663" y2="5" style="visibility: inherit;" fill="rgb(0, 0, 0)" stroke="rgb(204, 204, 204)" stroke-width="1px"></line><line x1="280" y1="0" x2="280" y2="5" style="visibility: inherit;" fill="rgb(0, 0, 0)" stroke="rgb(204, 204, 204)" stroke-width="1px"></line></g><g transform="translate(0, 8)"><text x="0" y="0" dx="0em" dy="0.95em" style="text-anchor: middle; visibility: hidden; font-family: Roboto, sans-serif; font-size: 12px; font-weight: 200;" fill="rgb(255, 255, 255)" stroke="none" stroke-width="1px">-5k</text><text x="23.333333333333332" y="0" dx="0em" dy="0.95em" style="text-anchor: middle; visibility: inherit; font-family: Roboto, sans-serif; font-size: 12px; font-weight: 200;" fill="rgb(255, 255, 255)" stroke="none" stroke-width="1px">0</text><text x="46.666666666666664" y="0" dx="0em" dy="0.95em" style="text-anchor: middle; visibility: hidden; font-family: Roboto, sans-serif; font-size: 12px; font-weight: 200;" fill="rgb(255, 255, 255)" stroke="none" stroke-width="1px">5k</text><text x="70" y="0" dx="0em" dy="0.95em" style="text-anchor: middle; visibility: inherit; font-family: Roboto, sans-serif; font-size: 12px; font-weight: 200;" fill="rgb(255, 255, 255)" stroke="none" stroke-width="1px">10k</text><text x="93.33333333333333" y="0" dx="0em" dy="0.95em" style="text-anchor: middle; visibility: hidden; font-family: Roboto, sans-serif; font-size: 12px; font-weight: 200;" fill="rgb(255, 255, 255)" stroke="none" stroke-width="1px">15k</text><text x="116.66666666666667" y="0" dx="0em" dy="0.95em" style="text-anchor: middle; visibility: inherit; font-family: Roboto, sans-serif; font-size: 12px; font-weight: 200;" fill="rgb(255, 255, 255)" stroke="none" stroke-width="1px">20k</text><text x="140" y="0" dx="0em" dy="0.95em" style="text-anchor: middle; visibility: hidden; font-family: Roboto, sans-serif; font-size: 12px; font-weight: 200;" fill="rgb(255, 255, 255)" stroke="none" stroke-width="1px">25k</text><text x="163.33333333333334" y="0" dx="0em" dy="0.95em" style="text-anchor: middle; visibility: inherit; font-family: Roboto, sans-serif; font-size: 12px; font-weight: 200;" fill="rgb(255, 255, 255)" stroke="none" stroke-width="1px">30k</text><text x="186.66666666666666" y="0" dx="0em" dy="0.95em" style="text-anchor: middle; visibility: hidden; font-family: Roboto, sans-serif; font-size: 12px; font-weight: 200;" fill="rgb(255, 255, 255)" stroke="none" stroke-width="1px">35k</text><text x="210" y="0" dx="0em" dy="0.95em" style="text-anchor: middle; visibility: inherit; font-family: Roboto, sans-serif; font-size: 12px; font-weight: 200;" fill="rgb(255, 255, 255)" stroke="none" stroke-width="1px">40k</text><text x="233.33333333333334" y="0" dx="0em" dy="0.95em" style="text-anchor: middle; visibility: hidden; font-family: Roboto, sans-serif; font-size: 12px; font-weight: 200;" fill="rgb(255, 255, 255)" stroke="none" stroke-width="1px">45k</text><text x="256.66666666666663" y="0" dx="0em" dy="0.95em" style="text-anchor: middle; visibility: inherit; font-family: Roboto, sans-serif; font-size: 12px; font-weight: 200;" fill="rgb(255, 255, 255)" stroke="none" stroke-width="1px">50k</text><text x="280" y="0" dx="0em" dy="0.95em" style="text-anchor: middle; visibility: hidden; font-family: Roboto, sans-serif; font-size: 12px; font-weight: 200;" fill="rgb(255, 255, 255)" stroke="none" stroke-width="1px">55k</text></g><line x1="0" y1="0" x2="280" y2="0" fill="rgb(0, 0, 0)" stroke="rgb(204, 204, 204)" stroke-width="1px"></line></g></g></g></g></svg>